<?xml version="1.0" encoding="UTF-8"?>
<!DOCTYPE svg PUBLIC "-//W3C//DTD SVG 1.1//EN" "http://www.w3.org/Graphics/SVG/1.1/DTD/svg11.dtd">
<!-- Creator: CorelDRAW X8 -->
<svg xmlns="http://www.w3.org/2000/svg" xml:space="preserve" width="22.5776mm" height="15.2917mm" version="1.1" style="shape-rendering:geometricPrecision; text-rendering:geometricPrecision; image-rendering:optimizeQuality; fill-rule:evenodd; clip-rule:evenodd"
viewBox="0 0 2258 1529"
 xmlns:xlink="http://www.w3.org/1999/xlink">
 <defs>
  <style type="text/css">
   <![CDATA[
    .fil0 {fill:#FEFEFE}
    .fil1 {fill:white}
   ]]>
  </style>
 </defs>
 <g id="Capa_x0020_1">
  <metadata id="CorelCorpID_0Corel-Layer"/>
  <g id="_2153277087520">
   <g>
    <path class="fil0" d="M2258 1529l-130 0c-47,0 -88,-17 -122,-50 -33,-34 -50,-75 -50,-122 0,-49 18,-90 52,-124 34,-32 74,-48 120,-48l130 0 0 13c0,15 -6,29 -17,40 -11,12 -25,17 -41,17l-68 0c-28,0 -52,10 -72,30 -20,20 -30,44 -30,72 0,28 10,52 30,72 20,20 44,30 72,30l68 0c16,0 30,6 41,17 11,11 17,25 17,40l0 13z"/>
    <path class="fil0" d="M514 1529l0 -287c0,-15 6,-29 17,-41 11,-11 25,-16 41,-16l12 0 0 287c0,15 -6,29 -17,40 -11,11 -25,17 -40,17l-13 0z"/>
    <path class="fil0" d="M366 1529l-51 0 -20 0 0 -344 13 0c16,0 30,5 41,16 11,12 17,26 17,41l0 57 0 159 10 0 0 1 0 70 38 0c15,0 29,-6 40,-17 12,-11 17,-25 17,-41l0 -13 -95 0 0 71 -10 0z"/>
    <path class="fil0" d="M126 1529c-28,0 -54,-8 -76,-26 -33,-25 -50,-59 -50,-100l0 -218 13 0c16,0 30,5 41,16 11,12 17,26 17,41l0 161c0,16 5,29 16,40 11,11 24,16 39,16 16,0 29,-6 40,-16 11,-12 16,-24 16,-40l0 -161c0,-15 6,-29 17,-41 11,-11 25,-16 40,-16l13 0 0 218c0,41 -17,75 -49,100 -23,18 -48,26 -77,26z"/>
    <path class="fil0" d="M978 1367l0 91 110 0c15,0 29,6 40,17 11,11 17,25 17,41l0 13 -238 0 0 -344 238 0 0 12c0,16 -6,30 -17,41 -11,11 -25,17 -40,17l-110 0 0 59c0,0 1,0 1,-1 11,-11 25,-17 40,-17l99 0 0 13c0,16 -6,30 -17,41 -11,11 -25,17 -41,17l-82 0z"/>
    <path class="fil0" d="M1641 1366l120 0 0 -13c0,-16 -6,-30 -17,-41 -11,-11 -25,-17 -41,-17l-133 0 0 62c0,47 16,88 50,122 33,33 74,49 121,50l1 0 4 0c45,-2 85,-18 117,-50 33,-34 50,-75 50,-122 0,-49 -17,-90 -52,-124 -34,-32 -74,-48 -120,-48l-130 0 0 12c0,16 6,30 17,41 11,11 25,17 41,17l68 0c28,0 52,10 72,30 20,20 30,44 30,72 0,31 -12,56 -35,77 -18,14 -39,21 -62,21 -28,0 -52,-10 -72,-30 -17,-17 -26,-37 -29,-59z"/>
    <path class="fil0" d="M854 1375c7,16 11,33 11,50 0,19 -4,37 -12,54 -18,32 -43,50 -75,50l-151 0 0 -13c0,-15 5,-29 14,-40 9,-11 21,-17 34,-17l102 0c7,0 13,-3 19,-9 7,-6 10,-14 10,-24 0,-10 -3,-18 -8,-25 -6,-6 -12,-9 -20,-9l-69 0 -1 0c-30,-4 -53,-20 -69,-51 -8,-16 -12,-34 -12,-53 0,-29 8,-54 25,-74 17,-20 38,-31 62,-31l151 0 0 13c0,16 -5,30 -14,41 -10,11 -21,17 -34,17l-103 0c-8,0 -14,3 -20,10 -6,7 -8,14 -8,24 0,9 2,16 7,22 6,8 13,11 21,11l68 0 1 0c30,3 54,20 70,51l1 3 0 0z"/>
    <path class="fil0" d="M1415 1375c7,16 11,33 11,50 0,19 -4,37 -13,54 -17,32 -42,50 -74,50l-151 0 0 -13c0,-15 5,-29 14,-40 9,-11 21,-17 34,-17l102 0c7,0 13,-3 19,-9 6,-6 10,-14 10,-24 0,-10 -3,-18 -9,-25 -5,-6 -11,-9 -19,-9l-69 0 -1 0c-30,-4 -53,-20 -69,-51 -8,-16 -12,-34 -12,-53 0,-29 8,-54 25,-74 17,-20 38,-31 62,-31l151 0 0 13c0,16 -5,30 -14,41 -10,11 -21,17 -34,17l-103 0c-8,0 -15,3 -20,10 -6,7 -8,14 -8,24 0,9 2,16 7,22 6,8 12,11 21,11l68 0 1 0c30,3 54,20 70,51l1 3 0 0z"/>
   </g>
   <g>
    <path class="fil0" d="M1129 869c-22,0 -40,-4 -56,-12l-88 64 39 -119c-3,-9 -5,-18 -6,-27l-10 -6 -195 -113c31,80 -4,126 19,200 8,26 22,52 43,76 21,25 45,44 70,57 26,13 57,22 95,27 32,3 76,19 89,41 13,-22 57,-38 89,-41 37,-5 69,-14 95,-27 25,-13 49,-32 70,-57 21,-24 35,-50 43,-76 22,-74 -12,-120 19,-200l-196 113 -9 6c-1,9 -3,18 -6,27l39 119 -88 -64c-16,8 -35,12 -56,12z"/>
    <polygon class="fil0" points="1129,577 1160,675 1263,674 1180,735 1212,832 1129,772 1046,832 1078,735 994,674 1097,675 "/>
    <path class="fil1" d="M1402 580l-3 -21c-11,-72 -26,-178 46,-209l95 -54 95 -55c47,-39 62,-113 25,-241l-173 100 -128 74c-114,70 -166,210 -156,311l23 162 136 0 -123 89c121,-70 244,-132 366,-196l1 1 76 -40c54,-34 44,-130 23,-236l-150 87 -35 20c-70,36 -79,70 -63,164l0 3c2,26 -35,43 -55,41z"/>
    <path class="fil1" d="M856 580l3 -21c11,-72 26,-178 -46,-209l-95 -54 -95 -55c-48,-39 -62,-113 -25,-241l172 100 129 74c113,70 166,210 156,311l-23 162 -136 0 123 89c-121,-70 -244,-132 -366,-196l-1 1 -76 -40c-54,-34 -44,-130 -23,-236l150 87 35 20c69,36 79,70 63,164l0 3c-2,26 35,43 55,41z"/>
   </g>
  </g>
 </g>
</svg>
