<?xml version="1.0" encoding="UTF-8"?>
<!DOCTYPE svg PUBLIC "-//W3C//DTD SVG 1.1//EN" "http://www.w3.org/Graphics/SVG/1.1/DTD/svg11.dtd">
<!-- Creator: CorelDRAW X8 -->
<svg xmlns="http://www.w3.org/2000/svg" xml:space="preserve" width="33.0225mm" height="22.366mm" version="1.1" style="shape-rendering:geometricPrecision; text-rendering:geometricPrecision; image-rendering:optimizeQuality; fill-rule:evenodd; clip-rule:evenodd"
viewBox="0 0 2192 1485"
 xmlns:xlink="http://www.w3.org/1999/xlink">
 <defs>
  <style type="text/css">
   <![CDATA[
    .fil0 {fill:#FEFEFE}
   ]]>
  </style>
 </defs>
 <g id="Capa_x0020_1">
  <metadata id="CorelCorpID_0Corel-Layer"/>
  <g id="_2153590501504">
   <g>
    <path class="fil0" d="M2192 1485l-125 0c-47,0 -86,-16 -119,-49 -32,-33 -49,-72 -49,-118 0,-47 18,-88 51,-121 33,-31 72,-47 117,-47l125 0 0 13c0,15 -5,29 -16,40 -11,10 -24,16 -40,16l-65 0c-28,0 -51,10 -70,29 -20,19 -29,42 -29,70 0,27 9,50 29,70 19,19 42,29 70,29l65 0c16,0 29,5 40,16 11,11 16,24 16,39l0 13z"/>
    <path class="fil0" d="M499 1485l0 -279c0,-15 6,-29 16,-39 11,-11 25,-17 40,-17l13 0 0 279c0,15 -6,29 -17,40 -11,10 -24,16 -40,16l-12 0z"/>
    <path class="fil0" d="M355 1485l-49 0 -19 0 0 -335 12 0c15,0 29,6 40,17 11,10 16,24 16,39l0 55 0 155 11 0 0 1 0 68 36 0c15,0 29,-6 39,-17 11,-10 17,-24 17,-39l0 -13 -92 0 0 69 -11 0z"/>
    <path class="fil0" d="M123 1485c-28,0 -53,-8 -75,-25 -31,-25 -48,-57 -48,-98l0 -212 13 0c15,0 28,6 39,17 11,10 17,24 17,39l0 156c0,15 5,28 15,39 11,11 24,16 39,16 15,0 27,-6 38,-16 11,-11 16,-23 16,-39l0 -156c0,-15 5,-29 16,-39 11,-11 24,-17 39,-17l13 0 0 212c0,40 -16,73 -48,98 -22,17 -47,25 -74,25z"/>
    <path class="fil0" d="M949 1327l0 89 107 0c15,0 29,6 40,17 10,10 16,24 16,39l0 13 -231 0 0 -335 231 0 0 13c0,15 -6,28 -16,39 -11,11 -25,17 -40,17l-107 0 0 57c1,0 1,0 2,-1 10,-10 24,-16 39,-16l96 0 0 12c0,16 -6,29 -17,40 -11,11 -24,16 -39,16l-81 0z"/>
    <path class="fil0" d="M1593 1326l117 0 0 -12c0,-16 -6,-29 -17,-40 -10,-11 -24,-16 -39,-16l-130 0 0 60c0,46 16,86 49,118 32,32 72,48 118,49l0 0 4 0c44,-2 83,-18 114,-49 33,-33 49,-72 49,-118 0,-48 -17,-88 -51,-121 -32,-31 -71,-47 -116,-47l-126 0 0 13c0,15 5,28 16,39 11,11 24,17 40,17l66 0c27,0 50,9 70,29 19,19 29,42 29,70 0,30 -11,54 -34,74 -18,14 -38,21 -60,21 -28,0 -51,-10 -71,-29 -16,-17 -25,-36 -28,-58z"/>
    <path class="fil0" d="M830 1336c6,15 10,31 10,48 0,18 -4,36 -12,52 -17,32 -41,49 -73,49l-146 0 0 -13c0,-15 4,-28 13,-39 9,-11 21,-16 34,-16l98 0c8,0 14,-3 19,-9 6,-6 9,-14 9,-24 0,-9 -2,-17 -7,-23 -6,-7 -12,-10 -20,-10l-67 0 0 0c-29,-3 -52,-19 -68,-49 -8,-16 -11,-33 -11,-52 0,-28 8,-52 25,-71 16,-20 36,-30 59,-30l147 0 0 13c0,15 -5,28 -14,39 -9,11 -20,17 -33,17l-100 0c-7,0 -14,3 -19,9 -5,7 -8,14 -8,23 0,9 2,16 7,22 6,8 12,11 20,11l67 0 0 0c30,3 53,19 68,49l2 3 0 1z"/>
    <path class="fil0" d="M1374 1336c7,15 10,31 10,48 0,18 -3,36 -11,52 -17,32 -42,49 -73,49l-147 0 0 -13c0,-15 5,-28 14,-39 9,-11 20,-16 33,-16l99 0c7,0 13,-3 19,-9 6,-6 9,-14 9,-24 0,-9 -2,-17 -8,-23 -5,-7 -11,-10 -19,-10l-67 0 -1 0c-29,-3 -52,-19 -67,-49 -8,-16 -12,-33 -12,-52 0,-28 9,-52 25,-71 16,-20 37,-30 60,-30l146 0 0 13c0,15 -4,28 -13,39 -9,11 -21,17 -33,17l-100 0c-8,0 -14,3 -19,9 -6,7 -8,14 -8,23 0,9 2,16 7,22 5,8 12,11 20,11l66 0 1 0c29,3 52,19 68,49l1 3 0 1z"/>
   </g>
   <g>
    <path class="fil0" d="M1096 843c-21,0 -39,-3 -54,-11l-86 63 38 -117c-3,-8 -5,-16 -6,-26l-9 -5 -190 -110c30,78 -3,122 19,194 7,26 21,50 42,74 20,24 43,42 68,55 24,13 55,22 92,26 31,4 74,19 86,40 13,-21 56,-36 86,-40 37,-4 68,-13 93,-26 25,-13 47,-31 68,-55 20,-24 34,-48 42,-74 21,-72 -12,-116 18,-194l-190 110 -9 5c-1,10 -3,18 -6,26l38 117 -85 -63c-16,8 -34,11 -55,11z"/>
    <polygon class="fil0" points="1096,560 1127,655 1227,655 1146,713 1177,808 1096,749 1015,808 1047,713 966,655 1066,655 "/>
    <path class="fil0" d="M1361 563l-3 -21c-10,-69 -25,-172 45,-202l92 -53 92 -53c47,-38 61,-110 25,-234l-168 97 -124 72c-111,68 -161,204 -152,302l23 158 132 -1 -120 87c118,-68 237,-128 356,-191l0 2 74 -40c53,-32 43,-126 23,-229l-146 85 -34 19c-68,35 -77,68 -62,160l0 2c2,26 -33,43 -53,40z"/>
    <path class="fil0" d="M831 563l3 -21c11,-69 26,-172 -44,-202l-93 -53 -92 -53c-46,-38 -60,-110 -25,-234l168 97 125 72c110,68 161,204 151,302l-22 158 -132 -1 120 87c-118,-68 -238,-128 -356,-191l-1 2 -74 -40c-52,-32 -42,-126 -22,-229l146 85 34 19c67,35 76,68 61,160l0 2c-2,26 33,43 53,40z"/>
   </g>
  </g>
 </g>
</svg>
