<?xml version="1.0" encoding="UTF-8"?>
<!DOCTYPE svg PUBLIC "-//W3C//DTD SVG 1.1//EN" "http://www.w3.org/Graphics/SVG/1.1/DTD/svg11.dtd">
<!-- Creator: CorelDRAW X8 -->
<svg xmlns="http://www.w3.org/2000/svg" xml:space="preserve" width="27.8053mm" height="18.8324mm" version="1.1" style="shape-rendering:geometricPrecision; text-rendering:geometricPrecision; image-rendering:optimizeQuality; fill-rule:evenodd; clip-rule:evenodd"
viewBox="0 0 3424 2319"
 xmlns:xlink="http://www.w3.org/1999/xlink">
 <defs>
  <style type="text/css">
   <![CDATA[
    .fil0 {fill:#FEFEFE}
    .fil1 {fill:white}
   ]]>
  </style>
 </defs>
 <g id="Capa_x0020_1">
  <metadata id="CorelCorpID_0Corel-Layer"/>
  <g id="_2153597275520">
   <g>
    <path class="fil0" d="M3424 2319l-196 0c-72,0 -134,-25 -185,-76 -51,-51 -76,-113 -76,-185 0,-73 26,-137 79,-188 51,-49 112,-73 182,-73l196 0 0 19c0,24 -8,45 -25,62 -17,17 -38,26 -62,26l-103 0c-43,0 -79,15 -109,45 -31,31 -46,66 -46,109 0,43 15,79 46,109 30,31 66,46 109,46l103 0c24,0 45,8 62,25 17,17 25,38 25,62l0 19z"/>
    <path class="fil0" d="M779 2319l0 -435c0,-24 9,-45 26,-62 17,-17 38,-25 62,-25l19 0 0 435c0,24 -9,45 -26,62 -16,16 -37,25 -61,25l-20 0z"/>
    <path class="fil0" d="M555 2319l-78 0 -29 0 0 -522 19 0c24,0 45,8 62,25 17,17 26,38 26,62l0 86 0 242 16 0 0 1 0 106 56 0c24,0 45,-9 62,-25 17,-17 26,-38 26,-62l0 -20 -144 0 0 107 -16 0z"/>
    <path class="fil0" d="M192 2319c-43,0 -82,-12 -116,-39 -50,-38 -76,-89 -76,-152l0 -331 20 0c23,0 45,8 61,25 17,17 26,38 26,62l0 244c0,23 8,43 25,60 16,17 36,25 60,25 23,0 43,-9 59,-25 17,-17 25,-36 25,-60l0 -244c0,-24 9,-45 26,-62 16,-16 37,-25 61,-25l20 0 0 331c0,63 -26,114 -75,152 -34,27 -73,39 -116,39z"/>
    <path class="fil0" d="M1483 2073l0 139 167 0c23,0 45,9 61,26 17,17 26,38 26,62l0 19 -361 0 0 -522 361 0 0 19c0,24 -9,45 -26,62 -16,16 -38,25 -61,25l-167 0 0 90c1,0 1,-1 2,-1 16,-17 38,-26 61,-26l150 0 0 20c0,24 -9,45 -26,62 -17,16 -38,25 -62,25l-125 0z"/>
    <path class="fil0" d="M2489 2071l181 0 0 -19c0,-24 -8,-45 -25,-62 -17,-17 -38,-26 -62,-26l-202 0 0 94c0,72 25,134 76,185 50,50 113,74 184,76l1 0 6 0c68,-3 129,-27 178,-76 50,-51 76,-113 76,-185 0,-74 -27,-137 -80,-188 -50,-49 -111,-73 -181,-73l-197 0 0 19c0,24 9,45 26,62 16,16 38,25 61,25l104 0c43,0 79,15 109,46 30,30 45,66 45,109 0,47 -17,86 -53,116 -27,22 -59,32 -94,32 -43,0 -79,-15 -109,-45 -26,-25 -40,-56 -44,-90z"/>
    <path class="fil0" d="M1296 2086c10,23 16,49 16,76 0,28 -6,56 -19,81 -26,49 -64,76 -113,76l-229 0 0 -19c0,-24 7,-45 21,-62 14,-17 32,-25 52,-25l154 0c11,0 21,-5 29,-13 10,-10 15,-22 15,-38 0,-14 -4,-26 -12,-36 -9,-10 -18,-15 -30,-15l-105 0 -1 0c-45,-6 -81,-31 -105,-77 -12,-25 -18,-52 -18,-81 0,-44 12,-82 38,-112 26,-31 57,-46 94,-46l229 0 0 19c0,24 -8,45 -22,62 -14,17 -31,26 -51,26l-156 0c-12,0 -22,5 -30,15 -9,10 -13,22 -13,36 0,13 4,25 11,34 9,11 19,17 32,17l104 0 0 0c46,5 82,30 106,77l3 4 0 1z"/>
    <path class="fil0" d="M2146 2086c11,23 16,49 16,76 0,28 -6,56 -18,81 -26,49 -64,76 -114,76l-229 0 0 -19c0,-24 8,-45 22,-62 14,-17 32,-25 52,-25l154 0c11,0 21,-5 29,-13 10,-10 15,-22 15,-38 0,-14 -4,-26 -13,-36 -8,-10 -18,-15 -30,-15l-104 0 -1 0c-45,-6 -81,-31 -105,-77 -13,-25 -19,-52 -19,-81 0,-44 13,-82 39,-112 26,-31 57,-46 93,-46l229 0 0 19c0,24 -7,45 -21,62 -14,17 -32,26 -52,26l-156 0c-11,0 -21,5 -30,15 -8,10 -12,22 -12,36 0,13 3,25 11,34 9,11 19,17 31,17l105 0 0 0c46,5 82,30 106,77l2 4 0 1z"/>
   </g>
   <g>
    <path class="fil0" d="M1712 1317c-32,0 -61,-6 -85,-17l-133 97 59 -181c-5,-13 -8,-26 -9,-41l-15 -8 -296 -172c47,122 -5,191 28,303 12,40 34,78 66,116 32,37 68,66 106,86 39,20 87,34 145,40 48,6 115,30 134,63 20,-33 87,-57 135,-63 57,-6 105,-20 144,-40 39,-20 74,-49 106,-86 32,-38 54,-76 66,-116 34,-112 -18,-181 29,-303l-297 172 -14 8c-2,15 -5,28 -9,41l59 181 -134 -97c-24,11 -52,17 -85,17z"/>
    <polygon class="fil0" points="1712,875 1760,1023 1916,1023 1790,1114 1838,1263 1712,1171 1586,1263 1635,1114 1508,1023 1664,1023 "/>
    <path class="fil1" d="M2126 880l-5 -33c-16,-109 -39,-270 70,-316l144 -83 144 -83c73,-59 94,-171 39,-365l-262 151 -195 113c-172,106 -251,318 -236,472l35 246 206 -1 -187 136c184,-106 370,-200 556,-298l0 2 116 -61c82,-52 66,-197 35,-358l-228 132 -53 30c-105,55 -119,106 -96,249l0 4c3,41 -52,66 -83,63z"/>
    <path class="fil1" d="M1298 880l5 -33c16,-109 40,-270 -70,-316l-144 -83 -144 -83c-72,-59 -94,-171 -39,-365l263 151 194 113c173,106 252,318 237,472l-35 246 -207 -1 188 136c-185,-106 -371,-200 -556,-298l-1 2 -115 -61c-82,-52 -67,-197 -36,-358l228 132 53 30c106,55 120,106 96,249l0 4c-3,41 52,66 83,63z"/>
   </g>
  </g>
 </g>
</svg>
